<?xml version="1.0" encoding="UTF-8" standalone="no"?>
<!-- Created with Inkscape (http://www.inkscape.org/) -->

<svg
   width="1000"
   height="1000"
   viewBox="0 0 264.58333 264.58333"
   version="1.1"
   id="svg1"
   xml:space="preserve"
   inkscape:version="1.3.2 (091e20e, 2023-11-25, custom)"
   sodipodi:docname="NuGetIcon.svg"
   inkscape:export-filename="svg_blazor.png"
   inkscape:export-xdpi="12.288"
   inkscape:export-ydpi="12.288"
   xmlns:inkscape="http://www.inkscape.org/namespaces/inkscape"
   xmlns:sodipodi="http://sodipodi.sourceforge.net/DTD/sodipodi-0.dtd"
   xmlns:xlink="http://www.w3.org/1999/xlink"
   xmlns="http://www.w3.org/2000/svg"
   xmlns:svg="http://www.w3.org/2000/svg"
   xmlns:rdf="http://www.w3.org/1999/02/22-rdf-syntax-ns#"
   xmlns:cc="http://creativecommons.org/ns#"
   xmlns:dc="http://purl.org/dc/elements/1.1/"><title
     id="title14">SVG File Type Icon</title><sodipodi:namedview
     id="namedview1"
     pagecolor="#505050"
     bordercolor="#ffffff"
     borderopacity="1"
     inkscape:showpageshadow="false"
     inkscape:pageopacity="0"
     inkscape:pagecheckerboard="true"
     inkscape:deskcolor="#d1d1d1"
     inkscape:document-units="px"
     showborder="true"
     labelstyle="default"
     inkscape:zoom="1"
     inkscape:cx="476"
     inkscape:cy="519.5"
     inkscape:window-width="2560"
     inkscape:window-height="1369"
     inkscape:window-x="2552"
     inkscape:window-y="-8"
     inkscape:window-maximized="1"
     inkscape:current-layer="layer1" /><defs
     id="defs1"><linearGradient
       id="linearGradient10"
       inkscape:collect="always"><stop
         style="stop-color:#e8c87b;stop-opacity:1;"
         offset="0"
         id="stop10" /><stop
         style="stop-color:#e3a63a;stop-opacity:1;"
         offset="0.34167907"
         id="stop13" /><stop
         style="stop-color:#e39f2d;stop-opacity:1;"
         offset="0.74683028"
         id="stop12" /><stop
         style="stop-color:#e9b55c;stop-opacity:1;"
         offset="1"
         id="stop11" /></linearGradient><linearGradient
       id="linearGradient8"
       inkscape:collect="always"><stop
         style="stop-color:#000000;stop-opacity:1;"
         offset="0"
         id="stop8" /><stop
         style="stop-color:#000000;stop-opacity:0;"
         offset="1"
         id="stop9" /></linearGradient><linearGradient
       inkscape:collect="always"
       xlink:href="#linearGradient8"
       id="linearGradient9"
       x1="196.09398"
       y1="45.862057"
       x2="202.14166"
       y2="36.469349"
       gradientUnits="userSpaceOnUse" /><linearGradient
       inkscape:collect="always"
       xlink:href="#linearGradient10"
       id="linearGradient11"
       x1="186.38086"
       y1="79.078636"
       x2="209.96754"
       y2="48.519257"
       gradientUnits="userSpaceOnUse" /></defs><g
     inkscape:label="Page"
     inkscape:groupmode="layer"
     id="layer1"><rect
       style="fill:#464646;stroke-width:0.79374999;fill-opacity:1;stroke:none;stroke-dasharray:none"
       id="rect1"
       width="205.05208"
       height="261.9375"
       x="32.543751"
       y="1.322915"
       inkscape:label="page" /><path
       id="path6"
       style="display:inline;fill:#e19f29;fill-opacity:1;stroke-width:0.2032"
       d="m 134.44606,1.3229166 a 56.807147,32.793218 60 0 1 14.62856,6.9690836 l 0.003,-0.067179 82.58618,53.5114618 c 0,0 -0.02,0.0632 -0.0202,0.06356 a 12.738572,41.658576 60 0 1 5.92419,2.636531 12.738572,41.658576 60 0 1 0.0284,0.113688 V 1.3229166 Z m 18.46502,9.8464274 a 56.807147,32.793218 60 0 1 1.09244,0.870231 56.807147,32.793218 60 0 0 -1.09244,-0.870231 z m 4.38939,3.799768 a 56.807147,32.793218 60 0 1 1.52136,1.460376 56.807147,32.793218 60 0 0 -1.52136,-1.460376 z m 4.42247,4.466394 a 56.807147,32.793218 60 0 1 1.7663,2.010213 56.807147,32.793218 60 0 0 -1.7663,-2.010213 z m 4.26641,5.004346 a 56.807147,32.793218 60 0 1 2.05362,2.753837 56.807147,32.793218 60 0 0 -2.05362,-2.753837 z m 4.01526,5.462715 a 56.807147,32.793218 60 0 1 3.67833,5.822384 56.807147,32.793218 60 0 0 -3.67833,-5.822384 z m 3.67833,5.822384 a 56.807147,32.793218 60 0 1 3.22047,6.092651 56.807147,32.793218 60 0 0 -3.22047,-6.092651 z m 4.14445,8.134904 a 56.807147,32.793218 60 0 1 1.83244,4.206461 56.807147,32.793218 60 0 0 -1.83244,-4.206461 z m 2.74608,6.65024 a 56.807147,32.793218 60 0 1 1.34204,3.88245 56.807147,32.793218 60 0 0 -1.34204,-3.88245 z m 2.09445,6.429581 a 56.807147,32.793218 60 0 1 0.96738,3.782715 56.807147,32.793218 60 0 0 -0.96738,-3.782715 z m 45.95481,4.887557 a 12.738572,41.658576 60 0 0 -0.39584,0.02429 12.738572,41.658576 60 0 1 0.39584,-0.02429 z m -3.66179,0.461471 a 12.738572,41.658576 60 0 0 -0.75137,0.136425 12.738572,41.658576 60 0 1 0.75137,-0.136425 z m -4.20698,0.926558 a 12.738572,41.658576 60 0 0 -1.0914,0.299723 12.738572,41.658576 60 0 1 1.0914,-0.299723 z m -36.57916,0.0078 a 56.807147,32.793218 60 0 1 0.6134,3.771862 56.807147,32.793218 60 0 0 -0.6134,-3.771862 z m 31.92363,1.382861 a 12.738572,41.658576 60 0 0 -1.42988,0.502812 12.738572,41.658576 60 0 1 1.42988,-0.502812 z m -5.00796,1.837614 a 12.738572,41.658576 60 0 0 -1.76682,0.742073 12.738572,41.658576 60 0 1 1.76682,-0.742073 z m -5.24567,2.249475 a 12.738572,41.658576 60 0 0 -2.2841,1.104325 12.738572,41.658576 60 0 1 2.2841,-1.104325 z m -20.74912,0.6196 a 56.807147,32.793218 60 0 1 0.24908,3.945496 56.807147,32.793218 60 0 0 -0.24908,-3.945496 z m 15.3882,1.99471 a 12.738572,41.658576 60 0 0 -5.36298,2.926437 12.738572,41.658576 60 0 1 5.36298,-2.926437 z m -15.05799,3.826123 a 56.807147,32.793218 60 0 1 -0.26097,5.478219 56.807147,32.793218 60 0 0 0.26097,-5.478219 z"
       inkscape:label="peek-behind" /><path
       id="path13"
       style="display:inline;fill:#000000;fill-opacity:0.246073;stroke:none;stroke-width:0.264583px;stroke-linecap:butt;stroke-linejoin:miter;stroke-opacity:1"
       d="m 149.07342,8.2248209 -0.008,0.067179 a 55.201733,33.746932 64.330591 0 1 22.70461,27.4329511 55.201733,33.746932 64.330591 0 1 8.36706,44.886665 12.364446,42.91909 60.774159 0 1 10.39857,-6.377905 12.364446,42.91909 60.774159 0 1 37.38517,-12.433866 c 1.5e-4,-3.57e-4 0.0246,-0.06356 0.0246,-0.06356 z"
       inkscape:transform-center-x="-39.544116"
       inkscape:transform-center-y="36.247916"
       inkscape:label="flip-shadow" /><path
       id="path7"
       style="display:inline;fill:url(#linearGradient11);stroke:none;stroke-width:0.264583px;stroke-linecap:butt;stroke-linejoin:miter;stroke-opacity:1"
       d="m 149.0772,8.2248209 -0.003,0.067179 a 56.807147,32.793218 60 0 1 24.60832,27.4329511 56.807147,32.793218 60 0 1 11.48198,44.886665 12.738572,41.658576 60 0 1 9.95598,-6.377905 12.738572,41.658576 60 0 1 36.52232,-12.433866 c 1.2e-4,-3.57e-4 0.0202,-0.06356 0.0202,-0.06356 z"
       inkscape:label="flip" /><path
       id="path8"
       style="display:inline;fill:url(#linearGradient9);fill-opacity:1;stroke:none;stroke-width:0.79375;stroke-dasharray:none;stroke-opacity:1"
       d="m 134.44606,1.3229166 a 56.807147,32.793218 60 0 1 14.62856,6.9690836 l 0.003,-0.067179 82.58618,53.5114618 c 0,0 -0.02,0.0632 -0.0202,0.06356 a 12.738572,41.658576 60 0 1 5.92419,2.636531 12.738572,41.658576 60 0 1 0.0284,0.113688 V 1.3229166 Z m 18.46502,9.8464274 a 56.807147,32.793218 60 0 1 1.09244,0.870231 56.807147,32.793218 60 0 0 -1.09244,-0.870231 z m 4.38939,3.799768 a 56.807147,32.793218 60 0 1 1.52136,1.460376 56.807147,32.793218 60 0 0 -1.52136,-1.460376 z m 4.42247,4.466394 a 56.807147,32.793218 60 0 1 1.7663,2.010213 56.807147,32.793218 60 0 0 -1.7663,-2.010213 z m 4.26641,5.004346 a 56.807147,32.793218 60 0 1 2.05362,2.753837 56.807147,32.793218 60 0 0 -2.05362,-2.753837 z m 4.01526,5.462715 a 56.807147,32.793218 60 0 1 3.67833,5.822384 56.807147,32.793218 60 0 0 -3.67833,-5.822384 z m 3.67833,5.822384 a 56.807147,32.793218 60 0 1 3.22047,6.092651 56.807147,32.793218 60 0 0 -3.22047,-6.092651 z m 4.14445,8.134904 a 56.807147,32.793218 60 0 1 1.83244,4.206461 56.807147,32.793218 60 0 0 -1.83244,-4.206461 z m 2.74608,6.65024 a 56.807147,32.793218 60 0 1 1.34204,3.88245 56.807147,32.793218 60 0 0 -1.34204,-3.88245 z m 2.09445,6.429581 a 56.807147,32.793218 60 0 1 0.96738,3.782715 56.807147,32.793218 60 0 0 -0.96738,-3.782715 z m 45.95481,4.887557 a 12.738572,41.658576 60 0 0 -0.39584,0.02429 12.738572,41.658576 60 0 1 0.39584,-0.02429 z m -3.66179,0.461471 a 12.738572,41.658576 60 0 0 -0.75137,0.136425 12.738572,41.658576 60 0 1 0.75137,-0.136425 z m -4.20698,0.926558 a 12.738572,41.658576 60 0 0 -1.0914,0.299723 12.738572,41.658576 60 0 1 1.0914,-0.299723 z m -36.57916,0.0078 a 56.807147,32.793218 60 0 1 0.6134,3.771862 56.807147,32.793218 60 0 0 -0.6134,-3.771862 z m 31.92363,1.382861 a 12.738572,41.658576 60 0 0 -1.42988,0.502812 12.738572,41.658576 60 0 1 1.42988,-0.502812 z m -5.00796,1.837614 a 12.738572,41.658576 60 0 0 -1.76682,0.742073 12.738572,41.658576 60 0 1 1.76682,-0.742073 z m -5.24567,2.249475 a 12.738572,41.658576 60 0 0 -2.2841,1.104325 12.738572,41.658576 60 0 1 2.2841,-1.104325 z m -20.74912,0.6196 a 56.807147,32.793218 60 0 1 0.24908,3.945496 56.807147,32.793218 60 0 0 -0.24908,-3.945496 z m 15.3882,1.99471 a 12.738572,41.658576 60 0 0 -5.36298,2.926437 12.738572,41.658576 60 0 1 5.36298,-2.926437 z m -15.05799,3.826123 a 56.807147,32.793218 60 0 1 -0.26097,5.478219 56.807147,32.793218 60 0 0 0.26097,-5.478219 z"
       inkscape:label="flip-gradient" /><path
       id="rect13"
       style="display:inline;fill:#e19f29;fill-opacity:1;stroke:none;stroke-width:0.527525;stroke-dasharray:none;stroke-opacity:1"
       d="m 25.231018,172.24271 c -4.963796,0 -8.960177,3.99638 -8.960177,8.96018 v 47.69838 c 0,4.9638 3.996381,8.96018 8.960177,8.96018 H 244.90856 c 4.9638,0 8.96018,-3.99638 8.96018,-8.96018 v -47.69838 c 0,-4.9638 -3.99638,-8.96018 -8.96018,-8.96018 z m 58.011445,1.37305 c 3.76089,0 7.321005,0.66014 10.679968,1.98075 3.387672,1.32062 6.387959,3.22961 9.000489,5.7273 l -7.837769,9.00049 c -1.980927,-1.8948 -3.976045,-3.34479 -5.985681,-4.34961 -2.009636,-1.03352 -3.947508,-1.55029 -5.813599,-1.55029 -2.526399,0 -4.493153,0.54565 -5.899898,1.63659 -1.406745,1.06224 -2.109949,2.61254 -2.109949,4.65088 0,1.34933 0.487885,2.62706 1.463994,3.83284 1.004818,1.20578 2.425924,2.29656 4.263305,3.27267 l 8.268229,4.26331 c 4.306363,2.2393 7.622278,4.85202 9.947714,7.83776 2.354144,2.98575 3.531054,6.18665 3.531054,9.60303 0,5.42602 -1.95206,9.61739 -5.856494,12.57443 -3.904435,2.92832 -9.459669,4.39249 -16.665649,4.39249 -3.473799,0 -6.84696,-0.28674 -10.119796,-0.86092 -3.272835,-0.6029 -6.201175,-1.43581 -8.784993,-2.49804 l 1.550293,-11.6272 c 3.157999,1.32062 6.286959,2.33997 9.38754,3.05769 3.129291,0.71773 6.014567,1.07642 8.655803,1.07642 3.071872,0 5.4262,-0.54513 7.062618,-1.63607 1.636417,-1.09095 2.45463,-2.65594 2.45463,-4.69429 0,-2.66994 -1.679489,-4.79425 -5.038452,-6.37325 l -8.784993,-4.26331 c -4.335072,-2.12447 -7.69405,-4.75136 -10.076904,-7.88065 -2.382855,-3.1293 -3.574459,-6.58858 -3.574459,-10.37818 0,-5.33989 1.765617,-9.47402 5.296834,-12.40235 3.531217,-2.92832 8.526621,-4.39249 14.986165,-4.39249 z m 106.496857,0 c 4.44991,0 8.28259,0.7032 11.49801,2.10995 3.24412,1.37803 5.77019,3.34479 7.57886,5.89989 l -7.1484,8.22482 c -1.32062,-1.69383 -2.98592,-3.01411 -4.99556,-3.96151 -1.98093,-0.97611 -4.11942,-1.46451 -6.41615,-1.46451 -5.16763,0 -9.18727,1.75143 -12.05817,5.25394 -2.8422,3.50251 -4.26331,8.45485 -4.26331,14.85698 0,7.03372 1.43581,12.31639 4.30671,15.84761 2.87091,3.50251 7.1626,5.25342 12.8757,5.25342 1.86689,0 3.56726,-0.12994 5.12476,-0.37207 v -10.82414 h -10.1198 v -10.46448 h 21.14393 0.25838 v 29.92892 c -1.2632,0.37322 -3.47364,0.90469 -6.63164,1.5937 -3.15799,0.66031 -6.76117,0.99012 -10.80915,0.99012 -9.35917,0 -16.39275,-2.62689 -21.10104,-7.88065 -4.67958,-5.25376 -7.01921,-13.13444 -7.01921,-23.64197 0,-9.96205 2.42576,-17.67048 7.27759,-23.1252 4.85184,-5.48344 11.6848,-8.22482 20.49849,-8.22482 z m -80.35685,0.86093 h 11.75639 l 12.48812,50.94469 h 0.77515 l 12.48864,-50.94469 h 11.75639 l -15.8042,61.15079 h -17.65629 z"
       inkscape:label="file-type" /><text
       xml:space="preserve"
       style="font-weight:bold;font-size:36.6322px;line-height:1;font-family:'Cascadia Mono';-inkscape-font-specification:'Cascadia Mono Bold';display:inline;fill:#464646;fill-opacity:1;stroke-width:0.286189"
       x="195.52513"
       y="30.718819"
       id="text14"
       inkscape:label="platform-csharp"
       transform="scale(0.98701561,1.0131552)"><tspan
         sodipodi:role="line"
         id="tspan14"
         style="fill:#464646;fill-opacity:1;stroke-width:0.286189"
         x="0"
         y="0">C#</tspan></text><path
       d="m 230.97104,14.826971 c -0.858,5.950622 -3.59596,11.37138 -7.72688,15.298079 -4.13092,3.926701 -9.38681,6.104701 -14.83265,6.146422 -1.10312,0.04691 -2.20766,-0.02732 -3.29751,-0.221411 a 10.106949,11.181758 0 0 1 -8.40437,-10.540546 9.8151437,10.858921 0 0 1 2.87905,-7.590698 9.8126737,10.856188 0 0 1 13.76909,-0.107604 9.8150141,10.858778 0 0 1 2.97579,7.544805 c 0.0413,1.799774 -0.66345,3.378424 -2.11171,3.42403 -1.54731,0 -2.27267,-1.221571 -2.27267,-2.867841 V 21.33767 a 2.5328817,2.8022374 0 0 0 -2.51271,-2.80454 h -3.46591 a 6.0319464,6.6734051 0 0 0 -5.08697,3.015591 6.0336367,6.6752751 0 0 0 4.10753,10.253101 6.0327265,6.6742681 0 0 0 5.43557,-2.145199 l 0.1212,-0.199976 0.12134,0.221989 a 4.26785,4.7217082 0 0 0 3.63924,1.917456 4.8103687,5.3219204 0 0 0 4.45613,-5.563473 13.087032,14.478754 0 0 0 -0.35901,-3.535815 c -0.64278,-3.270667 -2.35708,-6.162391 -4.81245,-8.11739 a 12.243476,13.54549 0 0 0 -16.28546,1.973558 12.246336,13.548655 0 0 0 -3.1105,9.077563 12.399389,13.717986 0 0 0 3.57254,9.469888 12.396659,13.714965 0 0 0 8.51072,4.077762 c 0,0 0.90767,0.09136 1.93093,0.06533 a 26.129853,28.908594 0 0 0 14.01409,-4.626035 c 0.0594,-0.04576 0.11892,0.0456 0.0793,0.112212 a 20.569032,22.756416 0 0 1 -16.02392,7.250306 14.458284,15.995829 0 0 1 -10.52802,-4.729044 14.462184,16.000145 0 0 1 -4.18918,-11.686588 14.967253,16.558924 0 0 1 6.01074,-13.260214 14.655812,16.214363 0 0 1 8.64717,-3.158305 h 4.65172 a 13.086642,14.478322 0 0 0 9.65493,-4.7165323 0.18075292,0.19997483 0 0 1 0.0982,-0.061994 0.18439399,0.20400312 0 0 1 0.19768,0.095326 c 0.0199,0.037036 0.0288,0.079786 0.0257,0.1228052 a 13.124742,14.520475 0 0 1 -2.02964,6.4941501 0.18023278,0.19939939 0 0 0 0.015,0.217369 0.18036282,0.19954323 0 0 0 0.18518,0.07302 14.064659,15.560345 0 0 0 9.77859,-8.9216187 c 0.0226,-0.039826 0.0534,-0.072886 0.0904,-0.09639 a 0.24733243,0.27363464 0 0 1 0.24304,0 c 0.037,0.02337 0.068,0.05643 0.0902,0.09639 a 17.82796,19.72385 0 0 1 1.74863,12.5785627 z m -24.70255,6.45358 a 3.6180495,4.0028057 0 0 0 -3.54915,4.78429 3.6189596,4.0038127 0 0 0 2.8429,3.145648 3.6181796,4.0029496 0 0 0 4.3239,-3.926988 v -3.737229 a 0.26098642,0.28874064 0 0 0 -0.24761,-0.273921 z"
       fill="#702af7"
       id="path1"
       style="display:inline;fill:#464646;fill-opacity:1;stroke-width:0.136777"
       inkscape:label="platform-blazor" /></g><metadata
     id="metadata14"><rdf:RDF><cc:License
         rdf:about="http://creativecommons.org/licenses/by/4.0/"><cc:permits
           rdf:resource="http://creativecommons.org/ns#Reproduction" /><cc:permits
           rdf:resource="http://creativecommons.org/ns#Distribution" /><cc:requires
           rdf:resource="http://creativecommons.org/ns#Notice" /><cc:requires
           rdf:resource="http://creativecommons.org/ns#Attribution" /><cc:permits
           rdf:resource="http://creativecommons.org/ns#DerivativeWorks" /></cc:License><cc:Work
         rdf:about=""><cc:license
           rdf:resource="http://creativecommons.org/licenses/by/4.0/" /><dc:title>SVG File Type Icon</dc:title><dc:date>2024-10-24</dc:date><dc:creator><cc:Agent><dc:title>A-B Solutions / Asif Bacchus</dc:title></cc:Agent></dc:creator><dc:rights><cc:Agent><dc:title>Attribution Required</dc:title></cc:Agent></dc:rights><dc:subject><rdf:Bag><rdf:li>svg file page icon</rdf:li></rdf:Bag></dc:subject><dc:description>File type icon for SVG files. Page with upper-right corner flip.</dc:description></cc:Work></rdf:RDF></metadata></svg>
