<svg version="1.1" viewBox="0 0 1000 1000" xmlns="http://www.w3.org/2000/svg"><g id="LogoLayer" class="logo" fill="#e19f29"><path id="LogoLetters" class="logo__letters" d="m617.25 273.26h134.59c35.011 0 58.352 10.115 58.352 38.122 0 35.784-22.567 45.899-58.352 45.899h-134.59zm-268.77 75.514 108.13 347.69h348.9c98.02 0 194.49-57.561 194.49-168.81 0-81.684-46.673-121.36-96.465-138.48 41.233-22.559 68.458-52.894 68.458-108.91 0-56.787-31.118-139.25-177.37-139.25h-346.85l148.61 408.12h20.864v-88.383h151.71c40.451 0 59.898 17.892 59.898 50.566 0 42.78-31.118 52.894-66.902 52.894h-176.12l-154.11-423.2h-167.26l-264.47 717.98h171.25l96.873-270.76h138.31l-40.71-130.9h-53.664l36.433-108.55" fill-rule="evenodd"/><path id="Subtitle" class="logo__subtitle__text" d="m335.41 828.34q0-13.881-13.458-32.775l-22.43-31.04q-3.4304-4.8198-3.4304-9.8324 0-6.7477 5.2776-6.7477 7.1247 0 7.1247 16.58v4.8198h24.804q0-21.4-3.4304-28.919-6.597-15.231-29.027-15.231-15.833 0-24.804 8.29-7.9163 7.5189-7.9163 19.472 0 15.616 8.9718 27.955l24.804 34.317q6.5969 8.8684 6.5969 14.845 0 6.5549-7.1247 6.5549-7.3886 0-8.4441-8.8684v-12.531h-24.804q0 20.629 3.9582 28.919 7.1247 14.845 29.818 14.845 17.416 0 26.124-9.254 7.3886-7.7117 7.3886-21.4zm76.261 6.5549v-85.214q0-24.677-31.401-24.677-15.305 0-23.485 6.5549-7.9163 6.5549-7.9163 18.122v85.214q0 11.182 7.9163 17.737 8.1802 6.3622 23.485 6.3622 31.401 0 31.401-24.099zm-26.916-5.7838q0 7.5189-4.4859 7.5189-4.4859 0-4.4859-7.5189v-71.526q0-9.6396 4.4859-9.6396 4.4859 0 4.4859 9.6396zm92.093 28.726v-22.942h-22.43v-108.16h-29.29v131.1zm75.205-22.942v-108.16h-24.804v104.88q0 5.7838-4.4859 5.7838t-4.4859-5.7838v-104.88h-26.915v108.16q0 11.182 7.9163 17.737 8.1802 6.3622 23.485 6.3622 29.29 0 29.29-24.099zm69.4-88.492v-19.665h-60.692v19.665h15.833v111.43h29.027v-111.43zm37.998 111.43v-131.1h-29.29v131.1zm75.996-22.942v-85.214q0-24.677-31.401-24.677-15.305 0-23.485 6.5549-7.9163 6.5549-7.9163 18.122v85.214q0 11.182 7.9163 17.737 8.1802 6.3622 23.485 6.3622 31.401 0 31.401-24.099zm-26.916-5.7838q0 7.5189-4.4859 7.5189-4.4859 0-4.4859-7.5189v-71.526q0-9.6396 4.4859-9.6396 4.4859 0 4.4859 9.6396zm114.52 28.726v-131.1h-24.804v62.272l-12.138-62.272h-37.207v131.1h24.804v-67.092l15.569 67.092zm80.482-29.497q0-13.881-13.458-32.775l-22.43-31.04q-3.4304-4.8198-3.4304-9.8324 0-6.7477 5.2776-6.7477 7.1247 0 7.1247 16.58v4.8198h24.804q0-21.4-3.4304-28.919-6.597-15.231-29.027-15.231-15.833 0-24.804 8.29-7.9163 7.5189-7.9163 19.472 0 15.616 8.9718 27.955l24.804 34.317q6.5969 8.8684 6.5969 14.845 0 6.5549-7.1247 6.5549-7.3886 0-8.4441-8.8684v-12.531h-24.804q0 20.629 3.9582 28.919 7.1247 14.845 29.818 14.845 17.416 0 26.124-9.254 7.3886-7.7117 7.3886-21.4z" stroke-width="1.3216"/></g></svg>
